<?xml version="1.0" standalone="no"?>
<!DOCTYPE svg PUBLIC "-//W3C//DTD SVG 20010904//EN"
 "http://www.w3.org/TR/2001/REC-SVG-20010904/DTD/svg10.dtd">
<svg version="1.0" xmlns="http://www.w3.org/2000/svg"
 width="500.000000pt" height="500.000000pt" viewBox="0 0 500.000000 500.000000"
 preserveAspectRatio="xMidYMid meet">

<g transform="translate(0.000000,500.000000) scale(0.100000,-0.100000)"
fill="#000000" stroke="none">
<path d="M0 2500 l0 -2500 2500 0 2500 0 0 2500 0 2500 -2500 0 -2500 0 0
-2500z m2585 1645 c370 -20 783 -216 1051 -497 210 -220 369 -515 425 -787 12
-58 14 -61 53 -74 37 -12 41 -17 44 -50 l3 -36 -33 13 -33 14 0 -211 c0 -245
-14 -339 -76 -531 -188 -576 -666 -996 -1270 -1118 -165 -33 -453 -33 -618 0
-353 71 -644 231 -892 489 -195 204 -331 444 -405 719 -22 82 -27 124 -30 244
-2 126 -1 133 5 55 5 -49 11 -115 16 -145 l8 -55 24 70 c36 104 36 106 19 171
-8 32 -20 99 -27 147 -13 95 -24 98 -39 9 -6 -37 -8 -21 -9 73 -1 141 25 274
84 425 56 146 58 136 -20 132 l-66 -4 3 34 3 33 82 3 82 3 46 75 c245 404 636
680 1095 774 99 21 296 39 350 34 14 -2 70 -6 125 -9z m1574 -347 c0 -297 -2
-346 -13 -308 -40 149 -158 265 -307 303 l-53 14 40 7 c115 21 231 112 289
229 19 38 35 78 35 88 0 11 2 19 5 19 3 0 5 -159 4 -352z"/>
<path d="M2249 4120 c-60 -8 -79 -15 -79 -31 0 -6 17 -8 43 -5 23 3 81 8 130
12 65 4 87 9 87 20 0 16 -78 17 -181 4z"/>
<path d="M2450 4116 c0 -11 22 -16 88 -21 48 -3 110 -8 137 -11 47 -6 49 -5
34 11 -29 30 -259 49 -259 21z"/>
<path d="M2090 4094 c-68 -15 -194 -54 -188 -59 2 -1 48 6 103 17 55 11 110
22 121 24 12 2 24 11 28 19 3 8 4 15 3 14 -1 -1 -31 -7 -67 -15z"/>
<path d="M2739 4089 c13 -10 33 -19 45 -19 22 0 143 -25 179 -36 12 -4 17 -2
13 4 -6 10 -127 45 -211 61 l-50 9 24 -19z"/>
<path d="M2212 4070 c-44 -5 -67 -13 -77 -26 -16 -23 -57 -125 -52 -131 3 -2
53 1 113 7 60 5 137 10 172 10 l62 0 0 75 0 75 -77 -1 c-43 -1 -106 -5 -141
-9z"/>
<path d="M2450 4008 l0 -75 128 -6 c70 -4 148 -9 175 -13 37 -5 47 -4 47 7 0
26 -58 136 -75 142 -9 4 -75 10 -146 14 l-129 6 0 -75z"/>
<path d="M2070 4053 c-122 -21 -197 -46 -228 -76 -37 -35 -92 -110 -92 -125 0
-5 35 -1 78 9 42 10 112 24 155 32 l79 13 29 74 c16 41 29 76 29 78 0 2 -14 1
-50 -5z"/>
<path d="M2763 4048 c3 -7 18 -43 33 -79 l27 -67 57 -6 c32 -4 102 -17 156
-31 55 -13 101 -22 103 -20 5 5 -82 126 -106 148 -17 15 -114 40 -237 62 -30
5 -37 3 -33 -7z"/>
<path d="M1755 3971 c-107 -38 -170 -78 -239 -151 -37 -40 -66 -74 -63 -76 2
-2 44 11 93 30 49 19 108 40 132 47 32 9 48 21 59 43 8 17 33 52 55 79 43 51
38 55 -37 28z"/>
<path d="M3113 3911 c40 -61 59 -81 82 -86 17 -4 75 -25 129 -46 55 -21 102
-37 104 -35 8 9 -101 126 -144 154 -46 28 -193 92 -214 92 -5 0 14 -36 43 -79z"/>
<path d="M2283 3910 c-217 -11 -222 -13 -223 -89 0 -20 4 -23 28 -17 15 3 98
9 185 12 l157 7 0 49 c0 26 -1 47 -2 46 -2 0 -67 -4 -145 -8z"/>
<path d="M2450 3868 l0 -48 98 0 c53 0 137 -5 186 -10 49 -6 90 -9 92 -7 7 7
-16 81 -27 88 -11 7 -95 13 -281 22 l-68 3 0 -48z"/>
<path d="M2000 3883 c-94 -16 -257 -57 -267 -66 -7 -7 -19 -29 -28 -51 l-16
-39 23 6 c18 4 169 35 305 63 15 3 25 14 29 32 3 15 8 35 11 45 4 18 -4 19
-57 10z"/>
<path d="M2834 3849 c4 -24 9 -45 11 -47 2 -2 41 -11 87 -18 46 -8 121 -24
167 -35 46 -10 86 -17 88 -15 3 2 -4 24 -15 49 -15 34 -26 45 -48 50 -106 22
-225 46 -258 52 l-39 6 7 -42z"/>
<path d="M1442 3791 c-22 -17 -69 -57 -104 -90 l-63 -61 72 41 c51 29 83 56
108 90 19 27 33 49 31 49 -1 0 -21 -13 -44 -29z"/>
<path d="M3432 3765 c22 -30 44 -55 48 -55 3 0 32 -16 65 -35 32 -20 60 -34
62 -32 6 7 -195 177 -209 177 -4 0 11 -25 34 -55z"/>
<path d="M1600 3781 c-156 -59 -167 -66 -194 -119 l-25 -49 122 48 c67 27 129
49 138 49 21 0 33 15 52 63 15 34 15 37 -1 37 -9 -1 -51 -14 -92 -29z"/>
<path d="M2175 3798 c-60 -5 -113 -12 -118 -17 -8 -8 -27 -123 -22 -129 2 -2
58 1 123 7 66 6 155 11 196 11 l76 0 0 70 0 70 -72 -1 c-40 -1 -122 -6 -183
-11z"/>
<path d="M2450 3743 l0 -70 143 -6 c78 -4 168 -10 201 -13 l58 -7 -7 54 c-3
30 -8 61 -11 70 -5 18 -45 23 -261 35 l-123 7 0 -70z"/>
<path d="M3180 3805 c0 -2 7 -22 16 -44 14 -37 21 -42 82 -62 37 -12 102 -37
145 -55 42 -17 77 -29 77 -26 0 4 -10 25 -23 47 -25 45 -80 77 -207 120 -77
26 -90 29 -90 20z"/>
<path d="M1875 3756 c-202 -43 -190 -37 -210 -111 -10 -36 -16 -68 -13 -70 3
-3 51 6 108 19 56 14 138 31 181 37 60 9 79 16 80 28 0 9 4 40 8 69 7 51 7 52
-18 51 -14 0 -75 -11 -136 -23z"/>
<path d="M2851 3758 c0 -13 4 -43 7 -67 l7 -44 160 -32 c88 -18 172 -36 188
-40 21 -5 26 -4 23 6 -3 8 -12 40 -20 71 -19 66 -10 62 -216 104 -144 30 -150
30 -149 2z"/>
<path d="M1550 3666 c-157 -61 -171 -68 -184 -95 -17 -31 -39 -111 -33 -117 2
-2 33 9 68 25 35 15 101 41 147 55 71 24 83 31 88 54 3 15 10 40 15 56 12 40
11 56 -3 56 -7 -1 -51 -16 -98 -34z"/>
<path d="M3224 3679 c3 -13 12 -45 18 -71 11 -46 13 -48 64 -63 29 -8 96 -33
150 -54 54 -22 99 -39 100 -38 8 8 -40 126 -56 139 -21 17 -201 90 -254 104
-27 6 -29 5 -22 -17z"/>
<path d="M1334 3654 c-89 -54 -117 -77 -142 -123 -13 -22 -21 -41 -19 -41 3 0
46 26 97 58 75 47 94 64 110 100 10 23 18 42 16 42 -1 0 -29 -16 -62 -36z"/>
<path d="M3505 3640 c14 -27 29 -50 34 -50 4 0 47 -24 94 -54 81 -51 86 -53
72 -26 -26 51 -65 89 -139 135 -40 25 -76 45 -80 45 -3 0 5 -22 19 -50z"/>
<path d="M2225 3649 c-60 -4 -129 -10 -152 -14 -40 -6 -43 -8 -44 -38 0 -18
-5 -41 -10 -52 -6 -15 -8 -7 -6 30 l2 50 -35 -3 c-39 -4 -231 -43 -296 -61
-48 -13 -50 -18 -61 -189 -5 -84 -3 -106 8 -113 20 -13 85 -10 159 6 77 17
100 18 100 5 0 -5 -17 -13 -37 -17 l-38 -7 35 -6 c31 -4 35 -9 38 -39 3 -33 3
-33 -30 -28 -18 3 -80 9 -137 13 l-104 7 7 -109 c7 -106 23 -244 30 -251 2 -2
50 8 107 22 110 26 139 30 124 17 -6 -5 -57 -19 -115 -31 -58 -13 -108 -26
-111 -29 -6 -7 26 -190 34 -198 2 -2 41 5 86 16 46 12 91 19 100 18 9 -2 -28
-15 -81 -28 -110 -26 -106 -20 -83 -120 22 -95 18 -90 67 -76 68 20 110 27
103 16 -3 -5 -32 -14 -64 -21 -32 -6 -63 -14 -69 -18 -8 -5 -2 -37 18 -106 58
-195 93 -285 109 -285 11 0 12 -3 4 -11 -8 -8 -8 -20 -1 -41 14 -40 4 -46 -12
-7 -12 27 -17 30 -42 25 -36 -7 -180 -64 -192 -76 -10 -10 68 -137 155 -252
41 -53 66 -78 81 -78 16 0 18 -3 10 -13 -9 -10 8 -33 71 -99 45 -47 105 -107
133 -132 l51 -46 37 15 38 16 -26 34 c-56 73 -107 157 -100 163 3 4 9 2 11 -5
2 -6 30 -49 62 -95 l58 -83 54 3 c29 2 55 4 56 6 1 1 -13 41 -32 89 -18 48
-30 87 -26 87 4 0 22 -38 40 -85 l32 -85 45 0 44 0 0 85 c0 50 4 85 10 85 6 0
10 -35 10 -85 l0 -85 43 0 c40 0 45 3 62 38 10 20 35 89 56 152 42 127 41 130
-29 130 -24 0 -41 4 -38 8 3 5 29 7 59 4 l53 -4 13 53 c36 157 68 320 62 323
-3 2 -48 7 -98 11 -51 4 -91 10 -89 14 3 4 46 3 97 -1 66 -5 95 -4 100 4 4 7
10 37 14 68 4 31 11 63 16 71 10 14 9 1 -10 -104 -8 -44 -7 -48 13 -52 163
-34 237 -47 242 -43 15 16 130 376 122 383 -2 1 -12 7 -23 13 -19 11 -18 11 6
12 25 0 28 5 44 73 9 39 19 79 21 89 4 12 -5 18 -36 23 -22 4 -43 11 -46 17
-4 7 5 8 27 3 64 -14 62 -16 81 85 10 52 14 98 10 101 -8 8 -210 54 -282 64
-25 4 -53 9 -62 11 -14 4 -18 -1 -18 -20 0 -14 -4 -26 -9 -26 -4 0 -6 11 -4
24 5 23 2 24 -64 31 -101 9 -106 13 -23 14 76 1 221 -22 378 -59 97 -23 96
-24 106 53 4 40 2 53 -9 60 -8 4 -15 21 -15 37 0 23 5 30 20 30 18 0 20 7 20
86 0 77 -2 86 -20 91 -27 7 -26 23 1 23 22 0 22 2 16 138 -6 159 -14 187 -54
195 -141 31 -264 56 -295 60 l-38 6 -1 -52 -1 -52 -8 48 c-5 27 -11 51 -14 54
-7 7 -136 20 -278 28 l-118 7 0 -66 c0 -37 -4 -66 -10 -66 -6 0 -10 28 -10 65
l0 65 -47 -1 c-27 -1 -97 -5 -158 -10z m773 -426 l3 -83 -341 0 -340 0 0 -265
0 -265 275 0 275 0 0 -85 0 -85 -275 0 -275 0 0 -350 0 -350 -105 0 -105 0 0
778 c0 428 3 782 7 785 3 4 203 6 442 5 l436 -3 3 -82z"/>
<path d="M1245 3516 c-44 -29 -87 -62 -96 -72 -17 -19 -70 -136 -64 -142 1 -2
31 17 66 41 35 25 83 54 106 66 49 25 48 22 72 100 13 41 15 61 7 61 -6 -1
-47 -25 -91 -54z"/>
<path d="M3540 3563 c0 -5 8 -34 18 -66 17 -54 22 -60 84 -96 35 -21 86 -52
111 -70 26 -18 47 -30 47 -27 0 2 -13 33 -28 69 -30 70 -59 99 -163 162 -58
36 -69 40 -69 28z"/>
<path d="M1535 3515 c-38 -14 -102 -39 -142 -56 -72 -31 -72 -31 -82 -81 -6
-27 -11 -62 -11 -78 0 -30 0 -30 58 -30 33 0 100 -3 149 -6 l91 -7 7 89 c4 49
10 113 14 142 6 36 5 52 -3 52 -6 -1 -42 -12 -81 -25z"/>
<path d="M3265 3484 c4 -32 10 -106 14 -162 l6 -104 95 -32 c53 -18 122 -44
154 -59 32 -15 61 -27 64 -27 7 0 -6 170 -20 253 -8 51 -17 72 -32 82 -28 19
-220 94 -258 102 l-31 6 8 -59z"/>
<path d="M3744 3472 c8 -16 22 -35 32 -43 10 -8 5 4 -11 29 -32 48 -42 55 -21
14z"/>
<path d="M1119 3458 c-17 -24 -18 -29 -6 -19 18 14 42 51 33 51 -3 0 -15 -15
-27 -32z"/>
<path d="M3583 3398 c14 -54 27 -166 27 -234 l0 -71 53 -28 c28 -15 84 -50
123 -77 39 -26 73 -48 76 -48 20 0 -35 305 -60 334 -19 21 -103 79 -176 121
l-49 29 6 -26z"/>
<path d="M1204 3360 c-118 -72 -122 -80 -38 -80 38 0 79 -3 90 -6 19 -5 22 0
28 43 4 26 10 58 13 71 3 12 1 22 -4 22 -5 0 -45 -22 -89 -50z"/>
<path d="M1052 3350 c-49 -62 -54 -81 -16 -71 20 5 31 19 45 56 10 28 18 54
16 59 -2 5 -22 -15 -45 -44z"/>
<path d="M3780 3400 c0 -3 9 -30 21 -60 13 -35 40 -76 75 -112 30 -31 54 -54
54 -51 0 18 -79 151 -111 186 -21 23 -38 40 -39 37z"/>
<path d="M3840 3229 c1 -8 7 -41 15 -74 8 -33 18 -100 21 -150 l7 -90 47 -42
c26 -23 59 -45 74 -49 l27 -6 -7 63 c-10 94 -46 190 -97 261 -52 73 -87 109
-87 87z"/>
<path d="M960 3188 c-12 -22 -12 -22 6 -6 10 10 15 20 12 24 -4 3 -12 -5 -18
-18z"/>
<path d="M975 3168 c-71 -83 -108 -184 -120 -328 l-7 -85 75 80 75 80 7 80 c6
78 20 162 31 198 10 32 -23 18 -61 -25z"/>
<path d="M1041 3153 c-15 -74 -26 -213 -17 -213 4 0 30 18 59 39 29 22 82 56
120 76 l67 37 0 59 0 59 -109 0 -108 0 -12 -57z"/>
<path d="M1287 3157 c-4 -28 -5 -52 -4 -53 1 -1 55 18 120 44 65 26 114 48
110 49 -5 1 -56 3 -114 6 l-106 5 -6 -51z"/>
<path d="M1485 3156 c-49 -18 -115 -45 -146 -58 l-56 -26 4 -83 c5 -89 28
-267 36 -275 2 -3 42 10 88 29 46 19 114 44 152 57 47 15 67 27 67 38 0 20
-19 248 -26 310 -3 23 -10 42 -17 42 -7 -1 -52 -16 -102 -34z"/>
<path d="M3280 3158 c0 -18 -3 -56 -6 -84 l-7 -52 158 -37 c177 -42 175 -43
175 37 0 46 -2 48 -41 68 -53 27 -205 85 -246 94 -32 7 -33 7 -33 -26z"/>
<path d="M1166 3005 c-148 -92 -145 -89 -145 -170 -1 -62 21 -231 35 -277 4
-15 14 -10 64 26 33 24 89 61 125 81 47 26 65 41 61 52 -9 22 -36 251 -36 300
0 24 -4 43 -8 43 -5 0 -48 -25 -96 -55z"/>
<path d="M3610 3000 l0 -59 58 -17 c31 -8 87 -24 123 -35 79 -23 79 -23 79 -5
0 22 -221 176 -253 176 -4 0 -7 -27 -7 -60z"/>
<path d="M3260 2931 c0 -10 -3 -39 -6 -63 l-6 -46 83 -27 c46 -15 113 -41 149
-57 35 -16 69 -27 76 -24 7 2 15 33 19 68 3 35 9 70 11 80 4 13 -20 22 -145
52 -173 42 -181 42 -181 17z"/>
<path d="M952 2836 c-23 -25 -56 -67 -72 -93 -33 -52 -34 -70 -3 -253 20 -126
23 -130 58 -83 16 21 48 58 71 83 l42 45 -14 62 c-8 34 -20 112 -27 174 l-12
112 -43 -47z"/>
<path d="M3880 2870 c0 -5 5 -10 11 -10 5 0 7 5 4 10 -3 6 -8 10 -11 10 -2 0
-4 -4 -4 -10z"/>
<path d="M3592 2801 c-18 -105 -17 -108 31 -132 23 -12 77 -46 119 -75 42 -30
79 -50 81 -46 9 14 39 210 35 232 -3 20 -16 27 -100 51 -53 15 -110 30 -126
34 l-29 6 -11 -70z"/>
<path d="M1548 2780 c-129 -44 -218 -86 -218 -105 0 -9 10 -54 21 -100 l21
-84 37 15 c93 40 180 73 219 83 28 8 42 17 42 28 0 16 -30 186 -34 190 -1 1
-41 -11 -88 -27z"/>
<path d="M828 2771 c-5 -18 -8 -43 -8 -55 1 -19 2 -19 11 -3 6 9 9 34 7 55
l-3 37 -7 -34z"/>
<path d="M3226 2704 c-9 -53 -16 -97 -14 -99 2 -1 35 -13 73 -25 39 -13 105
-38 147 -55 l77 -33 10 32 c6 17 15 54 21 81 6 28 13 57 16 66 3 12 -11 23
-53 42 -84 38 -222 87 -242 87 -15 0 -21 -17 -35 -96z"/>
<path d="M3875 2753 c-3 -21 -13 -81 -23 -133 l-17 -94 44 -46 c24 -24 55 -62
69 -83 18 -27 28 -34 33 -25 11 20 37 164 45 250 8 96 -8 130 -75 153 -63 21
-69 20 -76 -22z"/>
<path d="M4051 2723 c-1 -12 4 -25 9 -28 12 -7 12 2 0 30 -8 19 -9 19 -9 -2z"/>
<path d="M1241 2644 c-89 -49 -171 -112 -171 -130 0 -15 48 -165 55 -172 2 -2
32 16 67 40 35 25 86 57 113 73 28 15 51 28 52 29 3 2 -43 185 -48 190 -3 3
-33 -11 -68 -30z"/>
<path d="M3549 2584 c-23 -95 -23 -97 -5 -108 11 -6 62 -39 114 -73 53 -35 98
-61 101 -57 10 9 59 169 54 176 -7 13 -125 94 -184 127 l-57 32 -23 -97z"/>
<path d="M4037 2591 c-4 -40 -16 -114 -27 -162 l-19 -89 28 -87 28 -87 14 89
c19 128 18 330 -2 375 l-16 35 -6 -74z"/>
<path d="M1595 2564 c-90 -31 -215 -85 -215 -93 0 -3 12 -43 27 -88 l26 -82
36 16 c20 8 82 32 138 52 56 20 105 39 108 43 7 7 -35 178 -44 177 -3 0 -37
-11 -76 -25z"/>
<path d="M3184 2507 c-10 -45 -19 -85 -19 -90 0 -4 43 -23 95 -41 52 -18 116
-43 142 -54 l47 -21 25 77 c14 42 26 83 26 90 0 14 -48 37 -170 81 -135 50
-124 53 -146 -42z"/>
<path d="M993 2453 c-91 -106 -90 -101 -58 -191 15 -42 30 -81 34 -85 5 -4 21
9 37 30 16 21 46 57 67 80 l38 41 -28 91 c-15 50 -31 91 -35 91 -3 0 -28 -26
-55 -57z"/>
<path d="M3798 2413 l-27 -87 48 -51 c26 -27 55 -62 65 -77 10 -16 22 -28 26
-28 4 0 20 37 35 83 l28 83 -26 39 c-29 42 -105 125 -115 125 -4 0 -19 -39
-34 -87z"/>
<path d="M3520 2468 c0 -1 -13 -41 -29 -88 -16 -47 -28 -85 -28 -86 98 -55
126 -72 163 -100 24 -19 47 -34 50 -34 3 0 21 34 40 76 28 62 32 79 22 91 -20
25 -218 152 -218 141z"/>
<path d="M1290 2428 c-30 -17 -78 -48 -107 -70 l-52 -38 16 -37 c14 -36 53
-115 58 -121 1 -2 31 17 66 41 35 24 83 55 107 67 23 13 41 29 39 35 -3 5 -15
43 -28 83 -12 39 -28 72 -33 72 -6 0 -36 -14 -66 -32z"/>
<path d="M1680 2383 c-60 -22 -217 -85 -228 -91 -9 -6 -6 -23 14 -72 28 -69
131 -278 146 -297 7 -8 22 -6 61 11 29 13 77 31 107 41 30 10 58 21 63 24 4 4
-6 43 -22 87 -16 43 -43 130 -61 192 -34 114 -39 120 -80 105z"/>
<path d="M3141 2338 c-8 -29 -33 -111 -56 -183 -24 -71 -45 -136 -47 -143 -2
-7 27 -23 77 -41 44 -16 96 -36 116 -44 l35 -16 46 87 c48 91 128 266 128 282
0 15 -237 110 -274 110 -7 0 -18 -24 -25 -52z"/>
<path d="M876 2263 c-30 -94 -30 -133 -1 -206 15 -37 31 -67 35 -67 4 0 10 18
14 40 3 22 14 55 23 74 16 34 15 38 -13 121 -16 47 -32 85 -36 85 -3 0 -13
-21 -22 -47z"/>
<path d="M3976 2300 c-3 -8 -16 -46 -30 -85 l-24 -70 27 -84 28 -84 13 34 c34
92 37 115 29 174 -10 71 -35 138 -43 115z"/>
<path d="M1069 2259 c-20 -22 -49 -58 -64 -79 l-26 -38 38 -77 39 -77 29 39
c15 21 46 56 67 79 l39 41 -33 76 c-18 42 -37 77 -42 77 -5 0 -26 -18 -47 -41z"/>
<path d="M3725 2224 l-35 -77 48 -51 c26 -28 57 -64 68 -80 l20 -28 38 75 c36
71 37 75 23 103 -19 36 -105 134 -117 134 -5 0 -25 -34 -45 -76z"/>
<path d="M1349 2235 c-41 -24 -87 -55 -104 -68 l-30 -25 23 -49 c26 -54 183
-293 193 -293 4 0 35 19 71 43 36 23 73 47 83 53 18 10 17 14 -17 76 -20 36
-60 119 -89 184 -28 66 -53 120 -54 121 0 2 -35 -17 -76 -42z"/>
<path d="M3431 2218 c-14 -35 -53 -119 -87 -188 -49 -99 -60 -127 -48 -133 7
-4 43 -28 80 -52 37 -25 70 -45 74 -45 17 0 230 336 219 344 -2 1 -22 16 -44
32 -33 25 -161 104 -168 104 -1 0 -13 -28 -26 -62z"/>
<path d="M1145 2078 c-25 -29 -53 -66 -62 -82 -15 -28 -14 -30 50 -125 36 -53
90 -123 120 -156 l56 -60 18 25 c9 14 34 43 54 65 l37 40 -65 95 c-35 52 -83
128 -105 167 -22 40 -43 75 -48 78 -5 3 -29 -19 -55 -47z"/>
<path d="M3656 2082 c-15 -29 -64 -109 -110 -177 l-84 -123 35 -34 c19 -18 42
-45 51 -60 9 -16 21 -28 27 -28 14 0 111 117 180 218 43 62 55 89 51 106 -3
12 -32 52 -64 87 l-59 64 -27 -53z"/>
<path d="M955 2085 c-10 -22 -19 -65 -22 -95 -4 -48 0 -62 27 -107 32 -55 50
-67 50 -33 0 11 9 43 20 71 l19 51 -39 77 -38 76 -17 -40z"/>
<path d="M3874 2050 l-39 -76 25 -77 26 -77 37 64 c35 61 36 67 28 118 -5 30
-16 69 -23 88 l-14 35 -40 -75z"/>
<path d="M2746 2018 c-53 -237 -77 -350 -74 -352 9 -5 181 -36 184 -34 16 17
156 349 149 356 -7 7 -145 39 -203 47 -48 6 -51 5 -56 -17z"/>
<path d="M2986 1883 c-22 -54 -57 -133 -78 -177 -22 -43 -38 -79 -36 -81 2 -2
37 -16 78 -32 l75 -29 21 26 c36 43 148 202 181 257 l32 51 -52 22 c-64 28
-156 60 -171 60 -7 0 -29 -44 -50 -97z"/>
<path d="M897 1949 c4 -13 8 -18 11 -10 2 7 -1 18 -6 23 -8 8 -9 4 -5 -13z"/>
<path d="M3976 1955 c-9 -26 -7 -32 5 -12 6 10 9 21 6 23 -2 3 -7 -2 -11 -11z"/>
<path d="M1037 1899 c-28 -84 -23 -105 37 -183 30 -39 87 -102 125 -141 55
-54 71 -65 71 -49 0 11 7 42 16 68 l16 47 -45 47 c-51 55 -165 206 -180 240
-15 33 -22 28 -40 -29z"/>
<path d="M3795 1909 c-37 -58 -108 -151 -166 -218 l-47 -53 14 -40 c8 -22 14
-49 14 -59 0 -11 6 -19 14 -19 16 0 133 126 198 211 38 51 40 57 35 110 -3 31
-12 69 -20 84 l-14 29 -28 -45z"/>
<path d="M930 1885 c0 -20 65 -165 74 -165 3 0 2 17 -1 37 -7 44 -73 159 -73
128z"/>
<path d="M1555 1860 c-27 -16 -63 -40 -80 -53 l-29 -24 18 -29 c11 -15 73 -83
140 -151 l121 -123 54 34 c29 19 55 37 58 39 2 3 -26 45 -62 94 -37 48 -88
123 -114 165 -25 43 -48 77 -51 77 -3 0 -27 -13 -55 -29z"/>
<path d="M3227 1817 c-25 -40 -77 -115 -116 -166 l-70 -94 57 -37 57 -37 40
32 c38 30 245 254 245 265 0 6 -113 82 -147 99 -19 10 -25 5 -66 -62z"/>
<path d="M3916 1845 c-30 -50 -52 -130 -33 -118 15 9 68 133 65 151 -2 11 -14
-1 -32 -33z"/>
<path d="M1398 1743 c-13 -16 -37 -44 -51 -64 l-26 -35 62 -60 c69 -68 139
-125 208 -172 l46 -31 37 45 37 44 -98 99 c-54 54 -116 122 -138 150 -22 27
-43 50 -46 51 -3 0 -17 -12 -31 -27z"/>
<path d="M3372 1676 c-45 -51 -109 -119 -143 -151 l-62 -56 34 -37 c19 -20 37
-41 40 -45 7 -10 180 118 263 195 l60 54 -21 35 c-12 19 -37 49 -56 67 l-34
33 -81 -95z"/>
<path d="M1020 1744 c0 -42 23 -97 70 -166 49 -74 185 -217 195 -206 3 3 1 17
-5 32 -5 15 -10 39 -10 54 0 21 -18 46 -76 102 -42 41 -98 104 -125 139 -32
42 -49 57 -49 45z"/>
<path d="M3823 1707 c-18 -25 -70 -83 -115 -129 -73 -75 -83 -89 -98 -145 -9
-35 -14 -63 -10 -63 15 0 155 148 192 203 69 101 97 227 31 134z"/>
<path d="M2617 1513 c-68 -198 -67 -179 -11 -188 47 -7 49 -6 81 32 35 41 153
234 153 250 0 9 -51 23 -140 38 l-36 6 -47 -138z"/>
<path d="M1300 1596 c-5 -13 -12 -41 -16 -61 -7 -42 -13 -35 96 -118 57 -43
208 -137 220 -137 6 0 22 55 24 82 1 4 -35 33 -79 66 -44 32 -113 89 -153 125
-39 37 -74 67 -77 67 -3 0 -10 -11 -15 -24z"/>
<path d="M3475 1538 c-49 -43 -120 -99 -156 -124 l-66 -46 11 -38 c6 -21 14
-41 18 -45 16 -17 310 186 316 219 5 26 -6 80 -21 98 -10 14 -24 6 -102 -64z"/>
<path d="M2839 1568 c-28 -56 -125 -207 -152 -235 l-20 -22 29 -11 c16 -6 35
-13 42 -15 13 -5 272 245 272 262 0 7 -128 63 -145 63 -2 0 -14 -19 -26 -42z"/>
<path d="M1792 1508 c-28 -18 -52 -35 -52 -38 0 -15 304 -230 325 -230 3 0 17
7 30 16 l24 15 -135 135 c-73 74 -135 134 -136 134 -2 0 -27 -15 -56 -32z"/>
<path d="M2894 1404 l-132 -133 24 -16 c13 -8 26 -15 30 -15 24 0 324 211 324
228 0 9 -96 72 -107 71 -4 -1 -67 -61 -139 -135z"/>
<path d="M1285 1440 c14 -65 33 -99 76 -129 49 -36 246 -138 252 -131 2 3 2
21 0 40 -4 32 -12 40 -76 77 -61 35 -114 71 -240 163 -19 14 -19 13 -12 -20z"/>
<path d="M3516 1409 c-44 -32 -115 -80 -158 -106 -58 -34 -80 -53 -84 -72 -3
-14 -7 -32 -10 -38 -6 -20 11 -16 99 28 125 62 194 110 211 145 14 31 32 104
25 104 -2 -1 -40 -28 -83 -61z"/>
<path d="M1686 1418 l-37 -42 23 -18 c31 -24 296 -156 329 -163 27 -7 56 15
45 34 -3 5 -30 22 -59 39 -43 25 -144 97 -243 175 -22 17 -23 17 -58 -25z"/>
<path d="M3095 1409 c-33 -27 -106 -80 -162 -116 -90 -59 -100 -68 -90 -85 7
-10 19 -18 27 -18 19 0 307 143 339 169 l24 18 -39 42 -39 41 -60 -51z"/>
<path d="M1631 1323 c-6 -21 -11 -43 -11 -49 0 -26 354 -155 380 -139 25 16 9
43 -37 60 -56 21 -220 103 -280 140 l-42 25 -10 -37z"/>
<path d="M3195 1332 c-50 -32 -238 -125 -287 -143 -38 -13 -45 -23 -29 -47 6
-11 19 -10 71 3 71 18 164 52 252 92 49 22 58 30 58 52 -1 14 -6 36 -13 47
l-12 22 -40 -26z"/>
<path d="M1295 1330 c10 -11 20 -20 23 -20 3 0 -3 9 -13 20 -10 11 -20 20 -23
20 -3 0 3 -9 13 -20z"/>
<path d="M2294 1305 c-154 -28 -264 -105 -264 -185 0 -190 511 -273 742 -120
72 48 97 100 74 154 -53 124 -312 195 -552 151z"/>
<path d="M1366 1275 c28 -43 114 -105 212 -152 51 -25 95 -43 98 -40 3 3 -5
19 -17 37 -15 20 -56 46 -118 76 -52 24 -116 58 -143 74 -48 30 -49 30 -32 5z"/>
<path d="M3455 1253 c-33 -20 -93 -50 -133 -68 -49 -21 -81 -43 -97 -65 -14
-19 -23 -36 -20 -39 12 -11 214 101 265 147 30 28 53 52 50 55 -3 3 -32 -11
-65 -30z"/>
<path d="M1620 1239 c0 -6 6 -25 14 -44 13 -31 22 -36 98 -59 96 -29 218 -56
255 -56 19 0 24 4 19 16 -3 9 -6 18 -6 20 0 2 -9 4 -19 4 -30 0 -176 48 -273
90 -49 21 -88 34 -88 29z"/>
<path d="M3207 1224 c-54 -28 -273 -104 -299 -104 -10 0 -22 -9 -28 -20 -10
-18 -8 -20 17 -20 40 0 154 26 255 56 82 25 88 29 99 61 6 18 9 37 7 42 -2 5
-25 -2 -51 -15z"/>
<path d="M1686 1105 c19 -26 41 -39 78 -50 61 -18 175 -35 234 -35 39 0 42 2
32 19 -7 14 -25 22 -58 26 -55 8 -224 49 -265 64 -46 18 -50 13 -21 -24z"/>
<path d="M3110 1110 c-53 -15 -129 -33 -171 -40 -57 -9 -79 -17 -88 -33 -13
-20 -12 -20 71 -14 167 12 259 43 289 100 12 21 14 21 -101 -13z"/>
<path d="M1640 1075 c0 -5 116 -65 126 -65 4 0 -5 9 -19 20 -25 20 -107 54
-107 45z"/>
<path d="M3205 1067 c-33 -13 -105 -56 -105 -63 0 -4 140 64 149 72 8 7 -14 3
-44 -9z"/>
<path d="M1776 1028 c4 -6 30 -21 58 -34 44 -21 66 -24 161 -24 l110 0 -25 20
c-20 16 -41 20 -105 20 -44 0 -108 7 -142 14 -36 8 -60 9 -57 4z"/>
<path d="M3050 1025 c-30 -7 -94 -14 -141 -14 -72 -1 -89 -4 -104 -21 -18 -20
-17 -20 90 -20 89 0 116 4 151 21 23 11 48 27 54 35 7 7 11 13 9 13 -2 -1 -29
-7 -59 -14z"/>
<path d="M2005 951 l-80 -6 67 -19 c64 -18 161 -18 191 1 13 8 -49 34 -77 31
-11 -1 -57 -4 -101 -7z"/>
<path d="M2716 946 c-37 -17 -23 -25 56 -32 45 -5 80 -1 121 11 32 9 57 18 55
20 -2 1 -48 5 -103 8 -70 4 -109 1 -129 -7z"/>
<path d="M2160 906 l-35 -13 30 -6 c78 -16 289 -29 359 -22 74 6 77 8 56 22
-16 12 -37 14 -79 10 -31 -3 -87 -2 -126 3 -152 19 -170 19 -205 6z"/>
<path d="M2605 911 l-30 -7 25 -16 c21 -14 35 -14 95 -5 l70 11 -40 12 c-44
14 -75 15 -120 5z"/>
</g>
</svg>
